<?xml version="1.0" encoding="UTF-8" standalone="no"?>
<svg
   xmlns:dc="http://purl.org/dc/elements/1.1/"
   xmlns:cc="http://creativecommons.org/ns#"
   xmlns:rdf="http://www.w3.org/1999/02/22-rdf-syntax-ns#"
   xmlns:svg="http://www.w3.org/2000/svg"
   xmlns="http://www.w3.org/2000/svg"
   viewBox="0 0 413.48087 408.58704"
   height="408.58704"
   width="413.48087"
   id="svg2"
   version="1.1">
  <title
     id="title912">Logo SpinalHDL</title>
  <metadata
     id="metadata8">
    <rdf:RDF>
      <cc:Work
         rdf:about="">
        <dc:format>image/svg+xml</dc:format>
        <dc:type
           rdf:resource="http://purl.org/dc/dcmitype/StillImage" />
        <dc:title>Logo SpinalHDL</dc:title>
      </cc:Work>
    </rdf:RDF>
  </metadata>
  <defs
     id="defs6" />
  <g
     transform="translate(-5.81367,-3.5860225)"
     id="g10">
    <g
       transform="translate(-453.24677,-12.956482)"
       id="g876">
      <path
         style="fill:#ed1c24;fill-opacity:1;stroke-width:0.8"
         d="m 584.1007,377.09794 c -39.18384,-4.40544 -78.77452,-24.76954 -103.57996,-53.278 -6.22175,-7.15055 -14.12797,-18.43841 -18.85343,-26.91739 l -2.60687,-4.67754 3.12013,1.60437 c 4.70519,2.41941 8.69919,5.55944 17.694,13.9108 4.49562,4.17402 10.43562,8.81203 13.2,10.30667 4.34358,2.34849 5.78661,2.71859 10.62613,2.72539 5.03021,0.007 13.2,-2.06461 13.2,-3.34721 0,-0.2325 -1.76009,-3.35272 -3.91132,-6.93383 -39.68359,-66.06057 -39.06319,-152.86623 1.53833,-215.239874 25.78472,-39.611498 62.99479,-65.410093 111.04842,-76.992415 4.55149,-1.097041 8.41078,-1.859269 8.57621,-1.693842 0.16543,0.165428 -4.09852,2.227723 -9.47544,4.582879 -27.33829,11.974517 -48.16363,26.053086 -68.66536,46.419909 -30.63996,30.438333 -46.55364,63.542373 -49.52424,103.021553 -1.86363,24.7676 2.26419,46.13112 13.25297,68.59069 16.26069,33.23464 46.42476,56.44287 81.16043,62.44482 10.4803,1.81088 29.07748,1.26777 37.82702,-1.1047 22.44254,-6.08539 41.27586,-21.49528 64.5565,-52.82173 3.6453,-4.90511 6.92739,-8.91839 7.29354,-8.91839 1.27805,0 9.97825,9.58907 12.54954,13.83168 4.499,7.42332 6.02199,12.81566 6.39868,22.65532 0.27935,7.29677 0.03,10.08823 -1.39359,15.6 -5.83596,22.59581 -24.84622,47.26501 -50.70078,65.79328 -22.39827,16.05137 -59.69698,24.21903 -93.33091,20.43756 z"
         id="path855" />
      <path
         style="fill:#000000;stroke-width:0.8"
         d="m 700.10069,423.80821 c 32.85661,-14.89765 54.03325,-28.43074 73.29188,-46.83773 45.74876,-43.72567 63.28391,-104.55989 45.51419,-157.9012 -3.39152,-10.1807 -9.5616,-22.55872 -15.89584,-31.88919 -5.95713,-8.77498 -20.28707,-23.28489 -28.64928,-29.0091 -12.43641,-8.51314 -28.92819,-15.32076 -43.46095,-17.94018 -8.53787,-1.5389 -26.79408,-1.3427 -33.81809,0.36344 -25.0511,6.08492 -42.2787,19.41672 -66.40174,51.38584 -4.64817,6.16 -8.54659,11.32636 -8.66315,11.4808 -0.57252,0.75854 -6.34965,-4.63674 -9.61213,-8.9768 -13.64448,-18.15119 -14.19997,-37.34326 -1.77436,-61.304 9.1517,-17.64752 26.73408,-36.689876 45.67516,-49.467857 7.72269,-5.209862 13.86145,-8.236219 23.54048,-11.60527 34.81926,-12.11979 73.95814,-11.129602 109.59538,2.77269 34.81942,13.583249 63.19717,38.020227 81.04344,69.789077 2.60042,4.62911 2.60962,4.68156 0.72443,4.13076 -3.43933,-1.0049 -10.16293,-6.07637 -19.27878,-14.54161 -10.38005,-9.6392 -15.34944,-12.46944 -22.71788,-12.93863 -4.70761,-0.29975 -12.50271,1.42655 -13.46385,2.98171 -0.20345,0.3292 1.45347,3.63167 3.68204,7.33884 32.90806,54.74141 38.41337,126.10325 14.22368,184.37222 -20.32896,48.96905 -57.4759,84.61982 -105.55463,101.30317 -9.64498,3.34681 -26.29544,7.87426 -28.73636,7.81375 -1.93215,-0.0479 -1.88523,-0.13206 0.73636,-1.32073 z"
         id="path837" />
      <g
         id="g864">
        <ellipse
           ry="26.135765"
           rx="25.178125"
           cy="220.4592"
           cx="666.16614"
           id="path839"
           style="fill:#bcbec0;fill-opacity:1;stroke-width:0.619901" />
        <circle
           style="fill:#bcbec0;fill-opacity:1;stroke-width:0.6"
           id="circle843"
           cx="709.70459"
           cy="187.58156"
           r="18.980907" />
        <circle
           r="18.980907"
           cy="253.18805"
           cx="621.99554"
           id="path841"
           style="fill:#bcbec0;fill-opacity:1;stroke-width:0.6" />
        <circle
           style="fill:#bcbec0;fill-opacity:1;stroke-width:0.586847"
           id="circle847"
           cx="574.87384"
           cy="240.33647"
           r="13.598057" />
        <circle
           style="fill:#bcbec0;fill-opacity:1;stroke-width:0.586847"
           id="circle849"
           cx="756.86871"
           cy="200.94588"
           r="13.598057" />
        <circle
           style="fill:#bcbec0;fill-opacity:1;stroke-width:0.390526"
           id="circle851"
           cx="785.0224"
           cy="228.50606"
           r="9.0490446" />
        <circle
           r="9.0490446"
           cy="212.30309"
           cx="547.01172"
           id="path845"
           style="fill:#bcbec0;fill-opacity:1;stroke-width:0.390526" />
      </g>
    </g>
  </g>
</svg>
